<svg xmlns="http://www.w3.org/2000/svg" viewBox="0 0 128 128" fill="none" shape-rendering="auto" aria-hidden="true"><!-- Generated by DiceBear (https://www.dicebear.com) --><metadata xmlns:rdf="http://www.w3.org/1999/02/22-rdf-syntax-ns#" xmlns:xsi="http://www.w3.org/2001/XMLSchema-instance" xmlns:dc="http://purl.org/dc/elements/1.1/" xmlns:dcterms="http://purl.org/dc/terms/"><rdf:RDF><rdf:Description><dc:title>Voxel Bot</dc:title><dc:creator>DiceBear</dc:creator><dc:source xsi:type="dcterms:URI">https://www.dicebear.com</dc:source><dcterms:license xsi:type="dcterms:URI">https://creativecommons.org/publicdomain/zero/1.0/</dcterms:license><dc:rights>“Voxel Bot” (https://www.dicebear.com) by “DiceBear”, licensed under “CC0 1.0” (https://creativecommons.org/publicdomain/zero/1.0/)</dc:rights></rdf:Description></rdf:RDF></metadata><defs><g id="chest-heart-f1a5f072"><path d="M52 88.6h5v5h-5Zm10 0h5v5h-5Zm-12.5 5h20v5h-20Zm2.5 5h15v2.5H52Zm5 2.5h5v2.5h-5Z" fill="#3bc9db" fill-opacity=".9"/></g><g id="eyes-sleepy-f1a5f072"><path fill="#3bc9db" d="M10 7.5h10v5H10zm30 0h10v5H40z"/></g><g id="mouth-speaker-f1a5f072"><path fill="#3bc9db" d="M22.5 2.5H25V5h-2.5zm5 0H30V5h-2.5zm5 0H35V5h-2.5zm5 0H40V5h-2.5zM25 5h2.5v2.5H25zm5 0h2.5v2.5H30zm5 0h2.5v2.5H35z"/></g><g id="animation-none-f1a5f072"></g><g id="top-dish-f1a5f072"><path d="M61 20.4h5v5h-5Zm0 0h5l1-.8h-5Zm5 0 1-.8v5l-1 .8Z" fill="#5f6b7a"/><path d="M61 20.4h5l1-.8h-5Z" fill="#ffffff" fill-opacity=".38"/><path d="m66 20.4 1-.8v5l-1 .8Z" fill="#000000" fill-opacity=".24"/><path d="M47.5 16.2h30v5h-30Zm0 0h30l3-2.4h-30Zm30 0 3-2.4v5l-3 2.4Z" fill="#5f6b7a"/><path d="M47.5 16.2h30l3-2.4h-30Z" fill="#ffffff" fill-opacity=".38"/><path d="m77.5 16.2 3-2.4v5l-3 2.4Z" fill="#000000" fill-opacity=".24"/><path d="M60.5 13.3h5v2.5h-5Zm0 0h5l2-1.6h-5Zm5 0 2-1.6v2.5l-2 1.6Z" fill="#3bc9db"/><path d="M60.5 13.3h5l2-1.6h-5Z" fill="#ffffff" fill-opacity=".38"/><path d="m65.5 13.3 2-1.6v2.5l-2 1.6Z" fill="#000000" fill-opacity=".24"/></g><clipPath id="clip-f1a5f072"><rect width="128" height="128" rx="0" ry="0"/></clipPath></defs><g clip-path="url(#clip-f1a5f072)"><rect width="128" height="128" fill="#c0aede"/><path d="M33 124.8h50l10.5-8.4h-50Z" fill="#000000" fill-opacity=".08"/><path d="M36 119.4h20v5H36Zm0 0h20l8.5-6.8h-20Zm20 0 8.5-6.8v5l-8.5 6.8Z" fill="#5f6b7a"/><path d="M36 119.4h20l8.5-6.8h-20Z" fill="#ffffff" fill-opacity=".38"/><path d="m56 119.4 8.5-6.8v5l-8.5 6.8Z" fill="#000000" fill-opacity=".24"/><path d="M61 119.4h20v5H61Zm0 0h20l8.5-6.8h-20Zm20 0 8.5-6.8v5l-8.5 6.8Z" fill="#5f6b7a"/><path d="M61 119.4h20l8.5-6.8h-20Z" fill="#ffffff" fill-opacity=".38"/><path d="m81 119.4 8.5-6.8v5l-8.5 6.8Z" fill="#000000" fill-opacity=".24"/><path d="M44.5 101.1h10v17.5h-10Zm0 0h10l7-5.6h-10Zm10 0 7-5.6V113l-7 5.6Z" fill="#5f6b7a"/><path d="M44.5 101.1h10l7-5.6h-10Z" fill="#ffffff" fill-opacity=".38"/><path d="m54.5 101.1 7-5.6V113l-7 5.6Z" fill="#000000" fill-opacity=".24"/><path d="M64.5 101.1h10v17.5h-10Zm0 0h10l7-5.6h-10Zm10 0 7-5.6V113l-7 5.6Z" fill="#5f6b7a"/><path d="M64.5 101.1h10l7-5.6h-10Z" fill="#ffffff" fill-opacity=".38"/><path d="m74.5 101.1 7-5.6V113l-7 5.6Z" fill="#000000" fill-opacity=".24"/><g class="vb-upper"><path fill="#000000" fill-opacity=".16" d="M64.5 106.1h10v2h-10z"/><path d="M32.5 105.7H35v7.5h-2.5Zm0 0H35l6-4.8h-2.5Zm2.5 0 6-4.8v7.5l-6 4.8Z" fill="#5f6b7a"/><path d="M32.5 105.7H35l6-4.8h-2.5Z" fill="#ffffff" fill-opacity=".38"/><path d="m35 105.7 6-4.8v7.5l-6 4.8Z" fill="#000000" fill-opacity=".24"/><path d="M37.5 105.7H40v7.5h-2.5Zm0 0H40l6-4.8h-2.5Zm2.5 0 6-4.8v7.5l-6 4.8Z" fill="#5f6b7a"/><path d="M37.5 105.7H40l6-4.8h-2.5Z" fill="#ffffff" fill-opacity=".38"/><path d="m40 105.7 6-4.8v7.5l-6 4.8Z" fill="#000000" fill-opacity=".24"/><path fill="#000000" fill-opacity=".16" d="M39.5 106.1h.5v2h-.5z"/><path d="M32.5 85.7H40v20h-7.5Zm0 0H40l6-4.8h-7.5Z" fill="#b6a6f5"/><path d="M32.5 85.7H40l6-4.8h-7.5Z" fill="#ffffff" fill-opacity=".38"/><path d="M32.5 85.7H40v20h-7.5Z" fill="#000000" fill-opacity=".08"/><path d="M32.5 85.7H40l6-4.8h-7.5Z" fill="#000000" fill-opacity=".2"/><path fill="#000000" fill-opacity=".16" d="M44.5 106.1h10v2h-10z"/><path d="M39.5 83.6h40v22.5h-40Zm0 0h40l7-5.6h-40Zm40 0 7-5.6v22.5l-7 5.6Z" fill="#b6a6f5"/><path d="M39.5 83.6h40l7-5.6h-40Z" fill="#ffffff" fill-opacity=".38"/><path d="m79.5 83.6 7-5.6v22.5l-7 5.6Z" fill="#000000" fill-opacity=".24"/><path d="M39.5 83.6h40l7-5.6h-40Z" fill="#000000" fill-opacity=".2"/><path d="M80 105.7h2.5v7.5H80Zm0 0h2.5l6-4.8H86Zm2.5 0 6-4.8v7.5l-6 4.8Z" fill="#5f6b7a"/><path d="M80 105.7h2.5l6-4.8H86Z" fill="#ffffff" fill-opacity=".38"/><path d="m82.5 105.7 6-4.8v7.5l-6 4.8Z" fill="#000000" fill-opacity=".24"/><path d="M85 105.7h2.5v7.5H85Zm0 0h2.5l6-4.8H91Zm2.5 0 6-4.8v7.5l-6 4.8Z" fill="#5f6b7a"/><path d="M85 105.7h2.5l6-4.8H91Z" fill="#ffffff" fill-opacity=".38"/><path d="m87.5 105.7 6-4.8v7.5l-6 4.8Z" fill="#000000" fill-opacity=".24"/><path d="M80 85.7h7.5v20H80Zm0 0h7.5l6-4.8H86Zm7.5 0 6-4.8v20l-6 4.8Z" fill="#b6a6f5"/><path d="M80 85.7h7.5l6-4.8H86Z" fill="#ffffff" fill-opacity=".38"/><path d="m87.5 85.7 6-4.8v20l-6 4.8Z" fill="#000000" fill-opacity=".24"/><path d="M80 85.7h7.5v20H80Z" fill="#000000" fill-opacity=".08"/><path d="M80 85.7h7.5l6-4.8H86Z" fill="#000000" fill-opacity=".2"/><use href="#chest-heart-f1a5f072"/><path d="M54.5 71.6h15v10h-15Zm0 0h15l4-3.2h-15Zm15 0 4-3.2v10l-4 3.2Z" fill="#5f6b7a"/><path d="M54.5 71.6h15l4-3.2h-15Z" fill="#ffffff" fill-opacity=".38"/><path d="m69.5 71.6 4-3.2v10l-4 3.2Z" fill="#000000" fill-opacity=".24"/><g class="vb-head"><path d="M28 50.3h2.5v10H28Zm0 0h2.5l4-3.2H32Z" fill="#5f6b7a"/><path d="M28 50.3h2.5l4-3.2H32Z" fill="#ffffff" fill-opacity=".38"/><path d="M29 29h60v50H29Zm0 0h60l10-8H39Zm60 0 10-8v50l-10 8Z" fill="#b6a6f5"/><path d="M29 29h60l10-8H39Z" fill="#ffffff" fill-opacity=".38"/><path d="m89 29 10-8v50l-10 8Z" fill="#000000" fill-opacity=".24"/><path d="M36.5 36.5h45V39H84v32.5h-2.5V74h-45v-2.5H34V39h2.5Z" fill="#1a1430"/><path d="M90.5 50.3H93v10h-2.5Zm0 0H93l4-3.2h-2.5Zm2.5 0 4-3.2v10l-4 3.2Z" fill="#5f6b7a"/><path d="M90.5 50.3H93l4-3.2h-2.5Z" fill="#ffffff" fill-opacity=".38"/><path d="m93 50.3 4-3.2v10l-4 3.2Z" fill="#000000" fill-opacity=".24"/><use transform="translate(29 44)" href="#eyes-sleepy-f1a5f072"/><use transform="translate(29 64)" href="#mouth-speaker-f1a5f072"/><use href="#animation-none-f1a5f072"/><use href="#top-dish-f1a5f072"/></g></g></g></svg>